StickNoBills_final.sfdir
StartChar: Percent_sign
Encoding: 37 37 106
Width: 688
VWidth: 0
Flags: MW
LayerCount: 2
Back
Fore
SplineSet
411 117 m 0
 411 177 459 225 519 225 c 0
 579 225 627 177 627 117 c 0
 627 57 579 9 519 9 c 0
 459 9 411 57 411 117 c 0
50 575 m 0
 50 635 98 683 158 683 c 0
 218 683 266 635 266 575 c 0
 266 515 218 467 158 467 c 0
 98 467 50 515 50 575 c 0
184 -23 m 25
 311 -23 l 25
 485 716 l 25
 359 716 l 25
 184 -23 l 25
EndSplineSet
Validated: 9
EndChar
StartChar: quotesingle
Encoding: 39 39 93
Width: 460
VWidth: 0
Flags: MW
LayerCount: 2
Back
Fore
SplineSet
199 465 m 5
 72 465 l 5
 72 736 l 5
 199 736 l 5
 199 465 l 5
EndSplineSet
Validated: 1
EndChar
StartChar: eight
Encoding: 56 56 89
Width: 1024
VWidth: 0
Flags: MW
LayerCount: 2
Back
Fore
SplineSet
359 125 m 1
 326 134 301 164.98828125 301 201 c 3
 301 251 328 274 360 283 c 1
 360 413 l 1
 324 424 304 446 304 497 c 3
 304 551.016601562 343 568 361 571 c 1
 361 698 l 1
 291 698 180 619 180 499 c 3
 180 415 224 352 238 349 c 1
 210 330 173 269 173 199 c 7
 173 52 320 -1 358 0 c 1
 359 125 l 1
421 125 m 1
 454 134 479 164.98828125 479 201 c 3
 479 251 452 274 420 283 c 1
 420 413 l 1
 456 424 476 446 476 497 c 3
 476 551.016601562 437 568 419 571 c 1
 419 698 l 1
 489 698 599 619 599 499 c 3
 599 415 556 352 542 349 c 1
 570 330 607 269 607 199 c 3
 607 52 460 -1 422 0 c 1
 421 125 l 1
EndSplineSet
Validated: 524329
EndChar
StartChar: B
Encoding: 66 66 1
Width: 530
VWidth: 0
Flags: HMW
LayerCount: 2
Back
Fore
SplineSet
266 120 m 17
 353 120 366 176.98828125 366 203 c 3
 366 225 355 287 265 287 c 9
 265 409 l 17
 325 409 364 444 364 495 c 27
 364 545 323 574 264 575 c 9
 264 699 l 17
 433 696 489 585 489 511 c 3
 489 406 441 353 427 350 c 1
 455 331 490 270 490 195 c 3
 490 66 388 -1 267 -2 c 9
 266 120 l 17
EndSplineSet
Refer: 2 -1 N 1 0 0 1 24 -2 2
Validated: 1
Colour: ff0000
EndChar
StartChar: D
Encoding: 68 68 3
Width: 499
VWidth: 0
Flags: HMW
LayerCount: 2
Back
Fore
SplineSet
264.125 697.875 m 3
 407.421875 697.875 461.375 564.125 461.375 501.125 c 4
 319.875 501.125 l 3
 319.875 506.125 312.125 556.114257812 264.125 556.625 c 4
 264.125 697.875 l 3
320 506.75 m 1
 461 506.75 l 1
 461 193 l 1
 320 193 l 1
 320 506.75 l 1
461.25 196.75 m 7
 461.25 50.453125 324.5 -0.5 264.5 -0.5 c 0
 264.5 141 l 3
 269.5 141 319.489257812 148.75 320 196.75 c 4
 461.25 196.75 l 7
EndSplineSet
Refer: 2 -1 N 1 0 0 1 23 0 2
Validated: 5
EndChar
StartChar: G
Encoding: 71 71 23
Width: 540
VWidth: 0
Flags: HMW
LayerCount: 2
Back
SplineSet
212.934570312 550.514648438 m 1025,93,94
212.934570312 149.44140625 m 1025,107,-1
EndSplineSet
Fore
SplineSet
448.875 351 m 25
 448.875 174 l 18
 448.875 92.708984375 345.875 -5.6484375 264.375 -7 c 9
 263.875 133.671875 l 17
 269.875 133.671875 306.875 153.104492188 306.875 188 c 10
 306.875 221 l 25
 263.875 221 l 25
 263.875 351 l 25
 448.875 351 l 25
263.875 563.666992188 m 9
 263.875 704.666992188 l 17
 356.583984375 704.666992188 448.875 611.51953125 448.875 516 c 9
 310.875 465 l 25
 310.875 495 l 26
 310.875 509 311.228515625 519.697265625 305.875 532 c 0
 295.819335938 555.110351562 263.875 563.666992188 263.875 563.666992188 c 9
EndSplineSet
Refer: 13 -1 N -1 0 0 1 477.375 0 2
Validated: 53
EndChar
StartChar: J
Encoding: 74 74 11
Width: 531
VWidth: 0
Flags: HMW
LayerCount: 2
Back
SplineSet
46.6689453125 179.250976562 m 1025,3,-1
EndSplineSet
Fore
Refer: 17 -1 S -1 0 0 1 486.25 0 2
Refer: 18 -1 N 1 0 0 1 -4.5 0 2
Validated: 21
EndChar
StartChar: M
Encoding: 77 77 9
Width: 717
VWidth: 0
Flags: HMW
LayerCount: 2
Back
Fore
SplineSet
49 698 m 1
 159 698 l 1
 350.404296875 235.333007812 l 1
 456 473.788085938 l 1
 466.19921875 473.333007812 l 1
 466.298828125 149.333007812 l 1
 399 -2.6669921875 l 1
 302 -2.6669921875 l 1
 49 606.333007812 l 1
 49 698 l 1
49 -2.6669921875 m 1
 49 433.333007812 l 1
 58 433.333007812 l 1
 190.404296875 123.333007812 l 1
 190 -2.6669921875 l 1
 49 -2.6669921875 l 1
EndSplineSet
Refer: 2 -1 N 1 0 0 1 477 -2.26697 2
Validated: 1
EndChar
StartChar: V
Encoding: 86 86 26
Width: 432
VWidth: 0
Flags: MW
LayerCount: 2
Back
Fore
SplineSet
380.34375 699.6875 m 5
 340.006835938 569.13671875 298.73046875 429.923828125 257.34375 289.6875 c 5
 247.34375 289.6875 l 5
 180.939453125 513.6875 l 5
 236.34375 700.354492188 l 5
 380.34375 699.6875 l 5
-75.65625 700 m 1
 68.34375 700.666992188 l 1
 226.748046875 158 l 1
 174.34375 0 l 1
 127.34375 0 l 1
 -75.65625 700 l 1
EndSplineSet
Validated: 1
EndChar
StartChar: W
Encoding: 87 87 27
Width: 790
VWidth: 0
Flags: MW
LayerCount: 2
Back
Fore
SplineSet
740 700 m 1
 617 290 l 1
 607 290 l 1
 540.595703125 514 l 1
 596 700.666992188 l 1
 740 700 l 1
280 701 m 1
 424 700.666992188 l 1
 582.404296875 158 l 1
 530 0 l 1
 483 0 l 1
 280 701 l 1
67 700 m 5
 211 700.666992188 l 5
 369.404296875 158 l 5
 317 0 l 5
 270 0 l 5
 67 700 l 5
EndSplineSet
Validated: 1
EndChar
StartChar: X
Encoding: 88 88 35
Width: 453
VWidth: 0
Flags: MW
LayerCount: 2
Back
Fore
SplineSet
43 -0.6669921875 m 1
 268 700 l 1
 413 700 l 1
 190 -0.6669921875 l 1
 43 -0.6669921875 l 1
43 700.666992188 m 1
 190 700.666992188 l 1
 423 0 l 1
 278 0 l 1
 43 700.666992188 l 1
EndSplineSet
Validated: 5
EndChar
StartChar: Y
Encoding: 89 89 36
Width: 536
VWidth: 0
Flags: MW
LayerCount: 2
Back
Fore
SplineSet
293 565.333007812 m 1
 332 700 l 1
 477 700 l 1
 369 312.333007812 l 1
 293 565.333007812 l 1
50 700.666992188 m 1
 197 700.666992188 l 1
 326.700195312 253 l 0
 326.6953125 0 l 1
 181 0 l 1
 181 252 l 0
 50 700.666992188 l 1
EndSplineSet
Validated: 1
EndChar
StartChar: Z
Encoding: 90 90 37
Width: 433
VWidth: 0
Flags: MW
LayerCount: 2
Back
Fore
SplineSet
198 140.671875 m 17
 383.5 564 l 1
 383.5 701 l 1
 50 700.666992188 l 1
 50 564.333984375 l 1
 235.963867188 564.333984375 l 1
 50 140.671875 l 1
 50 0 l 1
 383.5 0 l 1
 383.5 141 l 1
 198 140.671875 l 17
EndSplineSet
Validated: 9
EndChar
StartChar: backslash
Encoding: 92 92 55
Width: 460
VWidth: 0
Flags: MW
LayerCount: 2
Back
Fore
SplineSet
373 -23 m 29
 246 -23 l 29
 72 716 l 29
 198 716 l 29
 373 -23 l 29
EndSplineSet
Validated: 1
EndChar
StartChar: underscore
Encoding: 95 95 112
Width: 975
VWidth: 0
Flags: MW
LayerCount: 2
Back
Fore
SplineSet
854 -204 m 25
 854 -75 l 25
 114 -75 l 25
 114 -204 l 25
 854 -204 l 25
EndSplineSet
Validated: 9
EndChar
StartChar: m
Encoding: 109 109 74
Width: 480
VWidth: 0
Flags: HMW
LayerCount: 2
Back
Fore
SplineSet
72 -4.2255859375 m 5
 180.776367188 -4.2255859375 l 5
 180.776367188 516 l 5
 72 516 l 5
 72 -4.2255859375 l 5
453.450195312 518.734375 m 4
 453.450195312 412.266601562 l 4
 421.372070312 411.905273438 414.572265625 384.12109375 414.572265625 380 c 4
 305.447265625 380 l 4
 305.447265625 422.549804688 353.521484375 518.734375 453.450195312 518.734375 c 4
500.997070312 518.734375 m 4
 600.92578125 518.734375 649 422.549804688 649 380 c 4
 539.875 380 l 4
 539.875 384.12109375 533.075195312 411.905273438 500.997070312 412.266601562 c 4
 500.997070312 518.734375 l 4
540.223632812 -0.2255859375 m 5
 540.223632812 380 l 5
 649 380 l 5
 649 -0.2255859375 l 5
 540.223632812 -0.2255859375 l 5
EndSplineSet
Refer: 73 117 S 1 0 0 -1.01357 4 519.687 2
Validated: 8912917
EndChar
StartChar: braceleft
Encoding: 123 123 111
Width: 1024
VWidth: 0
Flags: MW
LayerCount: 2
Back
Fore
SplineSet
422 735 m 13
 422 662 l 21
 353.517578125 661.842773438 355.028320312 617.85546875 354 496 c 13
 354 384 l 21
 354.548828125 366.154296875 334.528320312 354.01953125 310 348 c 5
 334.666992188 339.5546875 353.842773438 325.104492188 354 304 c 13
 354 178 l 21
 353.943359375 56.49609375 366.975585938 31.0244140625 421 31 c 13
 421 -38 l 21
 322.441234424 -37.6353250263 258.428787138 -45.6021139536 258 192 c 13
 258 290 l 21
 257.602080966 322.352549716 231.982421875 328.809570312 196 348 c 21
 232.049804688 363.025390625 257.4921875 369.815429688 258 408 c 13
 258 504 l 22
 258 714.622968215 313 735 422 735 c 13
EndSplineSet
Validated: 524321
EndChar
StartChar: bar
Encoding: 124 124 114
Width: 221
VWidth: 0
Flags: MW
LayerCount: 2
Back
Fore
SplineSet
41 754 m 1
 146 754 l 5
 146 -134 l 5
 41 -134 l 1
 41 754 l 1
EndSplineSet
Validated: 1
EndChar
StartChar: .notdef
Encoding: 256 -1 2
Width: 1024
VWidth: 0
Flags: MW
LayerCount: 2
Back
Fore
SplineSet
44 700 m 5
 185 700 l 5
 185 0 l 5
 44 0 l 5
 44 700 l 5
EndSplineSet
Validated: 1
EndChar
StartChar: NameMe.269
Encoding: 269 -1 71
Width: 233
VWidth: 0
Flags: MW
LayerCount: 2
Back
Fore
SplineSet
62.14453125 516 m 5
 99.0963541667 515.770008556 136.048177083 515.443353246 173 516 c 5
 172.85546875 0 l 5
 62 0 l 5
 62.14453125 516 l 5
EndSplineSet
Validated: 33
EndChar
